<?xml version="1.0" encoding="UTF-8" standalone="no"?>
<!DOCTYPE svg PUBLIC "-//W3C//DTD SVG 1.1//EN" "http://www.w3.org/Graphics/SVG/1.1/DTD/svg11.dtd">
<svg xmlns="http://www.w3.org/2000/svg" version="1.1" viewBox="-0.00 -0.00 196.00 196.00" width="128" height="128">
<g stroke-width="2.00" fill="none" stroke-linecap="butt">
<path stroke="#9aa4e2" vector-effect="non-scaling-stroke" d="
  M 154.89 149.80
  C 180.94 142.09 188.05 111.17 169.18 92.34
  Q 162.40 85.57 154.00 83.55
  Q 151.57 82.97 149.74 82.45
  A 1.28 1.26 -1.7 0 1 148.89 81.66
  Q 141.25 60.86 122.88 50.93
  C 96.97 36.92 64.76 46.00 50.07 71.62
  A 2.30 2.28 8.8 0 1 48.54 72.73
  Q 44.22 73.61 39.61 75.84
  C 8.06 91.13 8.68 134.59 40.13 149.69
  A 0.68 0.68 0.0 0 0 41.10 149.08
  L 41.10 138.89
  A 1.24 1.23 17.3 0 0 40.56 137.87
  C 19.47 123.32 23.25 93.36 47.06 84.14
  C 49.57 83.17 52.50 82.88 55.85 82.49
  A 1.11 1.10 -80.9 0 0 56.73 81.85
  Q 66.21 61.11 87.38 56.00
  C 96.61 53.77 107.20 54.88 115.48 58.99
  Q 136.16 69.26 140.59 92.12
  A 0.62 0.61 83.4 0 0 141.21 92.62
  Q 155.89 92.12 163.70 102.06
  C 173.74 114.85 169.99 131.46 155.05 138.44
  A 1.15 1.15 0.0 0 0 154.39 139.48
  L 154.39 149.42
  A 0.39 0.39 0.0 0 0 154.89 149.80"
/>
<path stroke="#9aa4e2" vector-effect="non-scaling-stroke" d="
  M 79.76 150.77
  Q 79.00 149.59 77.28 148.09
  C 75.50 146.52 75.06 143.65 75.07 141.17
  Q 75.10 132.70 75.08 109.42
  A 0.71 0.70 90.0 0 1 75.78 108.71
  L 79.11 108.71
  A 0.68 0.68 0.0 0 0 79.59 107.55
  L 64.91 92.87
  A 1.07 1.07 0.0 0 0 63.39 92.87
  L 48.92 107.34
  A 0.78 0.78 0.0 0 0 49.47 108.67
  L 52.53 108.67
  A 0.79 0.79 0.0 0 1 53.32 109.46
  Q 53.29 131.63 53.29 142.24
  Q 53.30 151.61 62.76 151.61
  Q 70.97 151.61 79.33 151.56
  A 0.52 0.51 -16.6 0 0 79.76 150.77"
/>
<path stroke="#9aa4e2" vector-effect="non-scaling-stroke" d="
  M 113.02 150.80
  C 111.19 148.61 108.52 146.78 108.49 143.24
  Q 108.36 128.12 108.47 117.99
  A 0.61 0.61 0.0 0 1 109.08 117.39
  L 112.49 117.39
  A 0.72 0.72 0.0 0 0 113.00 116.17
  L 98.42 101.59
  A 1.34 1.33 44.8 0 0 96.53 101.59
  L 81.83 116.29
  A 0.63 0.63 0.0 0 0 82.27 117.37
  L 85.98 117.37
  A 0.62 0.62 0.0 0 1 86.60 117.99
  Q 86.64 124.03 86.50 139.10
  Q 86.44 145.52 87.91 147.94
  Q 90.14 151.64 95.76 151.62
  Q 109.62 151.57 112.65 151.59
  A 0.48 0.48 0.0 0 0 113.02 150.80"
/>
<path stroke="#9aa4e2" vector-effect="non-scaling-stroke" d="
  M 115.82 125.79
  L 118.82 125.79
  A 1.08 1.08 0.0 0 1 119.90 126.87
  Q 119.92 136.84 119.93 141.76
  C 119.93 149.33 123.15 151.74 130.99 151.65
  Q 135.77 151.59 145.83 151.57
  A 0.57 0.57 0.0 0 0 146.22 150.59
  C 144.00 148.48 141.81 146.15 141.71 142.98
  Q 141.54 137.90 141.70 126.78
  A 0.95 0.95 0.0 0 1 142.65 125.84
  L 145.75 125.84
  A 0.59 0.59 0.0 0 0 146.16 124.83
  L 131.32 109.99
  A 0.75 0.75 0.0 0 0 130.26 109.99
  L 115.42 124.83
  A 0.56 0.56 0.0 0 0 115.82 125.79"
/>
</g>
<path fill="#3448c5" d="
  M 196.00 0.00
  L 196.00 196.00
  L 0.00 196.00
  L 0.00 0.00
  L 196.00 0.00
  Z
  M 154.89 149.80
  C 180.94 142.09 188.05 111.17 169.18 92.34
  Q 162.40 85.57 154.00 83.55
  Q 151.57 82.97 149.74 82.45
  A 1.28 1.26 -1.7 0 1 148.89 81.66
  Q 141.25 60.86 122.88 50.93
  C 96.97 36.92 64.76 46.00 50.07 71.62
  A 2.30 2.28 8.8 0 1 48.54 72.73
  Q 44.22 73.61 39.61 75.84
  C 8.06 91.13 8.68 134.59 40.13 149.69
  A 0.68 0.68 0.0 0 0 41.10 149.08
  L 41.10 138.89
  A 1.24 1.23 17.3 0 0 40.56 137.87
  C 19.47 123.32 23.25 93.36 47.06 84.14
  C 49.57 83.17 52.50 82.88 55.85 82.49
  A 1.11 1.10 -80.9 0 0 56.73 81.85
  Q 66.21 61.11 87.38 56.00
  C 96.61 53.77 107.20 54.88 115.48 58.99
  Q 136.16 69.26 140.59 92.12
  A 0.62 0.61 83.4 0 0 141.21 92.62
  Q 155.89 92.12 163.70 102.06
  C 173.74 114.85 169.99 131.46 155.05 138.44
  A 1.15 1.15 0.0 0 0 154.39 139.48
  L 154.39 149.42
  A 0.39 0.39 0.0 0 0 154.89 149.80
  Z
  M 79.76 150.77
  Q 79.00 149.59 77.28 148.09
  C 75.50 146.52 75.06 143.65 75.07 141.17
  Q 75.10 132.70 75.08 109.42
  A 0.71 0.70 90.0 0 1 75.78 108.71
  L 79.11 108.71
  A 0.68 0.68 0.0 0 0 79.59 107.55
  L 64.91 92.87
  A 1.07 1.07 0.0 0 0 63.39 92.87
  L 48.92 107.34
  A 0.78 0.78 0.0 0 0 49.47 108.67
  L 52.53 108.67
  A 0.79 0.79 0.0 0 1 53.32 109.46
  Q 53.29 131.63 53.29 142.24
  Q 53.30 151.61 62.76 151.61
  Q 70.97 151.61 79.33 151.56
  A 0.52 0.51 -16.6 0 0 79.76 150.77
  Z
  M 113.02 150.80
  C 111.19 148.61 108.52 146.78 108.49 143.24
  Q 108.36 128.12 108.47 117.99
  A 0.61 0.61 0.0 0 1 109.08 117.39
  L 112.49 117.39
  A 0.72 0.72 0.0 0 0 113.00 116.17
  L 98.42 101.59
  A 1.34 1.33 44.8 0 0 96.53 101.59
  L 81.83 116.29
  A 0.63 0.63 0.0 0 0 82.27 117.37
  L 85.98 117.37
  A 0.62 0.62 0.0 0 1 86.60 117.99
  Q 86.64 124.03 86.50 139.10
  Q 86.44 145.52 87.91 147.94
  Q 90.14 151.64 95.76 151.62
  Q 109.62 151.57 112.65 151.59
  A 0.48 0.48 0.0 0 0 113.02 150.80
  Z
  M 115.82 125.79
  L 118.82 125.79
  A 1.08 1.08 0.0 0 1 119.90 126.87
  Q 119.92 136.84 119.93 141.76
  C 119.93 149.33 123.15 151.74 130.99 151.65
  Q 135.77 151.59 145.83 151.57
  A 0.57 0.57 0.0 0 0 146.22 150.59
  C 144.00 148.48 141.81 146.15 141.71 142.98
  Q 141.54 137.90 141.70 126.78
  A 0.95 0.95 0.0 0 1 142.65 125.84
  L 145.75 125.84
  A 0.59 0.59 0.0 0 0 146.16 124.83
  L 131.32 109.99
  A 0.75 0.75 0.0 0 0 130.26 109.99
  L 115.42 124.83
  A 0.56 0.56 0.0 0 0 115.82 125.79
  Z"
/>
<path fill="#ffffff" d="
  M 154.89 149.80
  A 0.39 0.39 0.0 0 1 154.39 149.42
  L 154.39 139.48
  A 1.15 1.15 0.0 0 1 155.05 138.44
  C 169.99 131.46 173.74 114.85 163.70 102.06
  Q 155.89 92.12 141.21 92.62
  A 0.62 0.61 83.4 0 1 140.59 92.12
  Q 136.16 69.26 115.48 58.99
  C 107.20 54.88 96.61 53.77 87.38 56.00
  Q 66.21 61.11 56.73 81.85
  A 1.11 1.10 -80.9 0 1 55.85 82.49
  C 52.50 82.88 49.57 83.17 47.06 84.14
  C 23.25 93.36 19.47 123.32 40.56 137.87
  A 1.24 1.23 17.3 0 1 41.10 138.89
  L 41.10 149.08
  A 0.68 0.68 0.0 0 1 40.13 149.69
  C 8.68 134.59 8.06 91.13 39.61 75.84
  Q 44.22 73.61 48.54 72.73
  A 2.30 2.28 8.8 0 0 50.07 71.62
  C 64.76 46.00 96.97 36.92 122.88 50.93
  Q 141.25 60.86 148.89 81.66
  A 1.28 1.26 -1.7 0 0 149.74 82.45
  Q 151.57 82.97 154.00 83.55
  Q 162.40 85.57 169.18 92.34
  C 188.05 111.17 180.94 142.09 154.89 149.80
  Z"
/>
<path fill="#ffffff" d="
  M 79.76 150.77
  A 0.52 0.51 -16.6 0 1 79.33 151.56
  Q 70.97 151.61 62.76 151.61
  Q 53.30 151.61 53.29 142.24
  Q 53.29 131.63 53.32 109.46
  A 0.79 0.79 0.0 0 0 52.53 108.67
  L 49.47 108.67
  A 0.78 0.78 0.0 0 1 48.92 107.34
  L 63.39 92.87
  A 1.07 1.07 0.0 0 1 64.91 92.87
  L 79.59 107.55
  A 0.68 0.68 0.0 0 1 79.11 108.71
  L 75.78 108.71
  A 0.71 0.70 90.0 0 0 75.08 109.42
  Q 75.10 132.70 75.07 141.17
  C 75.06 143.65 75.50 146.52 77.28 148.09
  Q 79.00 149.59 79.76 150.77
  Z"
/>
<path fill="#ffffff" d="
  M 113.02 150.80
  A 0.48 0.48 0.0 0 1 112.65 151.59
  Q 109.62 151.57 95.76 151.62
  Q 90.14 151.64 87.91 147.94
  Q 86.44 145.52 86.50 139.10
  Q 86.64 124.03 86.60 117.99
  A 0.62 0.62 0.0 0 0 85.98 117.37
  L 82.27 117.37
  A 0.63 0.63 0.0 0 1 81.83 116.29
  L 96.53 101.59
  A 1.34 1.33 44.8 0 1 98.42 101.59
  L 113.00 116.17
  A 0.72 0.72 0.0 0 1 112.49 117.39
  L 109.08 117.39
  A 0.61 0.61 0.0 0 0 108.47 117.99
  Q 108.36 128.12 108.49 143.24
  C 108.52 146.78 111.19 148.61 113.02 150.80
  Z"
/>
<path fill="#ffffff" d="
  M 115.82 125.79
  A 0.56 0.56 0.0 0 1 115.42 124.83
  L 130.26 109.99
  A 0.75 0.75 0.0 0 1 131.32 109.99
  L 146.16 124.83
  A 0.59 0.59 0.0 0 1 145.75 125.84
  L 142.65 125.84
  A 0.95 0.95 0.0 0 0 141.70 126.78
  Q 141.54 137.90 141.71 142.98
  C 141.81 146.15 144.00 148.48 146.22 150.59
  A 0.57 0.57 0.0 0 1 145.83 151.57
  Q 135.77 151.59 130.99 151.65
  C 123.15 151.74 119.93 149.33 119.93 141.76
  Q 119.92 136.84 119.90 126.87
  A 1.08 1.08 0.0 0 0 118.82 125.79
  L 115.82 125.79
  Z"
/>
</svg>