<?xml version="1.0" encoding="UTF-8" standalone="no"?>
<!DOCTYPE svg PUBLIC "-//W3C//DTD SVG 1.1//EN" "http://www.w3.org/Graphics/SVG/1.1/DTD/svg11.dtd">
<svg xmlns="http://www.w3.org/2000/svg" version="1.1" viewBox="0.00 0.00 128.00 128.00" width="128" height="128">
<g stroke-width="2.00" fill="none" stroke-linecap="butt">
<path stroke="#808080" vector-effect="non-scaling-stroke" d="
  M 51.33 22.27
  C 43.80 24.56 38.72 30.56 36.59 38.09
  Q 36.57 38.17 36.51 38.24
  Q 36.45 38.30 36.37 38.33
  C 29.00 40.95 23.34 46.42 21.56 54.08
  C 19.77 61.74 22.43 69.15 27.89 74.75
  Q 27.95 74.81 27.97 74.90
  Q 28.00 74.98 27.98 75.07
  C 26.56 82.76 28.47 90.39 34.22 95.77
  C 39.96 101.14 47.71 102.54 55.28 100.62
  Q 55.37 100.60 55.45 100.62
  Q 55.54 100.64 55.61 100.69
  C 61.56 105.77 69.12 107.93 76.65 105.65
  C 84.18 103.36 89.26 97.35 91.38 89.83
  Q 91.41 89.75 91.47 89.68
  Q 91.53 89.62 91.61 89.59
  C 98.98 86.97 104.64 81.50 106.42 73.84
  C 108.21 66.18 105.55 58.77 100.09 53.17
  Q 100.03 53.11 100.00 53.02
  Q 99.98 52.94 99.99 52.85
  C 101.41 45.16 99.50 37.53 93.76 32.15
  C 88.02 26.78 80.27 25.37 72.69 27.30
  Q 72.61 27.32 72.52 27.30
  Q 72.44 27.28 72.37 27.23
  C 66.42 22.15 58.85 19.99 51.33 22.27"
/>
<path stroke="#808080" vector-effect="non-scaling-stroke" d="
  M 49.03 66.71
  Q 48.94 44.15 48.93 43.52
  Q 48.87 40.52 50.34 39.62
  Q 58.42 34.68 66.92 29.97
  A 0.44 0.43 -44.2 0 0 66.94 29.22
  Q 57.97 23.90 49.72 28.30
  C 44.94 30.85 41.15 36.16 41.05 41.28
  Q 40.88 49.55 41.04 62.16
  A 0.28 0.28 0.0 0 0 41.19 62.42
  L 48.86 66.80
  A 0.12 0.11 -74.4 0 0 49.03 66.71"
/>
<path stroke="#808080" vector-effect="non-scaling-stroke" d="
  M 54.11 52.29
  Q 73.63 41.03 74.17 40.71
  Q 76.74 39.17 78.25 40.00
  Q 86.54 44.56 94.84 49.60
  A 0.44 0.43 16.0 0 0 95.50 49.24
  Q 95.67 38.82 87.77 33.85
  C 83.18 30.97 76.70 30.31 72.21 32.76
  Q 64.95 36.72 54.09 43.11
  A 0.28 0.28 0.0 0 0 53.94 43.36
  L 53.94 52.19
  A 0.12 0.11 -14.1 0 0 54.11 52.29"
/>
<path stroke="#808080" vector-effect="non-scaling-stroke" d="
  M 58.92 78.26
  Q 39.34 67.11 38.79 66.81
  Q 36.16 65.37 36.12 63.65
  Q 35.86 54.19 36.01 44.49
  A 0.44 0.43 75.7 0 0 35.37 44.10
  Q 26.29 49.22 26.00 58.54
  C 25.84 63.96 28.54 69.88 32.92 72.52
  Q 40.01 76.78 51.01 82.92
  A 0.28 0.28 0.0 0 0 51.30 82.92
  L 58.92 78.46
  A 0.12 0.11 45.5 0 0 58.92 78.26"
/>
<path stroke="#808080" vector-effect="non-scaling-stroke" d="
  M 69.07 49.63
  Q 88.64 60.85 89.19 61.15
  Q 91.81 62.60 91.86 64.33
  Q 92.09 73.80 91.90 83.52
  A 0.44 0.43 75.8 0 0 92.55 83.90
  Q 101.65 78.81 101.97 69.47
  C 102.15 64.05 99.46 58.11 95.08 55.45
  Q 88.00 51.17 77.00 44.99
  A 0.28 0.28 0.0 0 0 76.71 44.98
  L 69.07 49.43
  A 0.12 0.11 45.7 0 0 69.07 49.63"
/>
<path stroke="#808080" vector-effect="non-scaling-stroke" d="
  M 58.96 55.16
  Q 54.35 57.80 54.11 58.20
  Q 53.88 58.61 53.85 63.92
  Q 53.83 69.24 54.06 69.64
  Q 54.30 70.05 58.89 72.72
  Q 63.48 75.40 63.95 75.40
  Q 64.41 75.40 69.03 72.76
  Q 73.64 70.13 73.87 69.72
  Q 74.11 69.32 74.13 64.00
  Q 74.15 58.69 73.92 58.28
  Q 73.69 57.88 69.10 55.20
  Q 64.51 52.53 64.04 52.53
  Q 63.57 52.52 58.96 55.16"
/>
<path stroke="#808080" vector-effect="non-scaling-stroke" d="
  M 79.00 61.11
  Q 79.06 83.74 79.07 84.37
  Q 79.13 87.37 77.65 88.28
  Q 69.54 93.22 61.00 97.93
  A 0.44 0.43 -44.1 0 0 60.99 98.68
  Q 69.98 104.04 78.25 99.64
  C 83.05 97.08 86.86 91.76 86.97 86.63
  Q 87.15 78.33 87.01 65.68
  A 0.28 0.28 0.0 0 0 86.86 65.43
  L 79.17 61.02
  A 0.12 0.11 -74.3 0 0 79.00 61.11"
/>
<path stroke="#808080" vector-effect="non-scaling-stroke" d="
  M 73.82 75.62
  Q 54.36 86.89 53.82 87.21
  Q 51.26 88.75 49.75 87.92
  Q 41.47 83.38 33.18 78.37
  A 0.44 0.43 15.9 0 0 32.52 78.73
  Q 32.37 89.13 40.26 94.07
  C 44.85 96.94 51.31 97.59 55.79 95.13
  Q 63.03 91.17 73.85 84.78
  A 0.28 0.28 0.0 0 0 74.00 84.53
  L 73.99 75.72
  A 0.12 0.11 -14.2 0 0 73.82 75.62"
/>
</g>
<path fill="#ffffff" d="
  M 128.00 0.00
  L 128.00 128.00
  L 0.00 128.00
  L 0.00 0.00
  L 128.00 0.00
  Z
  M 51.33 22.27
  C 43.80 24.56 38.72 30.56 36.59 38.09
  Q 36.57 38.17 36.51 38.24
  Q 36.45 38.30 36.37 38.33
  C 29.00 40.95 23.34 46.42 21.56 54.08
  C 19.77 61.74 22.43 69.15 27.89 74.75
  Q 27.95 74.81 27.97 74.90
  Q 28.00 74.98 27.98 75.07
  C 26.56 82.76 28.47 90.39 34.22 95.77
  C 39.96 101.14 47.71 102.54 55.28 100.62
  Q 55.37 100.60 55.45 100.62
  Q 55.54 100.64 55.61 100.69
  C 61.56 105.77 69.12 107.93 76.65 105.65
  C 84.18 103.36 89.26 97.35 91.38 89.83
  Q 91.41 89.75 91.47 89.68
  Q 91.53 89.62 91.61 89.59
  C 98.98 86.97 104.64 81.50 106.42 73.84
  C 108.21 66.18 105.55 58.77 100.09 53.17
  Q 100.03 53.11 100.00 53.02
  Q 99.98 52.94 99.99 52.85
  C 101.41 45.16 99.50 37.53 93.76 32.15
  C 88.02 26.78 80.27 25.37 72.69 27.30
  Q 72.61 27.32 72.52 27.30
  Q 72.44 27.28 72.37 27.23
  C 66.42 22.15 58.85 19.99 51.33 22.27
  Z"
/>
<path fill="#000000" d="
  M 72.52 27.30
  Q 72.61 27.32 72.69 27.30
  C 80.27 25.37 88.02 26.78 93.76 32.15
  C 99.50 37.53 101.41 45.16 99.99 52.85
  Q 99.98 52.94 100.00 53.02
  Q 100.03 53.11 100.09 53.17
  C 105.55 58.77 108.21 66.18 106.42 73.84
  C 104.64 81.50 98.98 86.97 91.61 89.59
  Q 91.53 89.62 91.47 89.68
  Q 91.41 89.75 91.38 89.83
  C 89.26 97.35 84.18 103.36 76.65 105.65
  C 69.12 107.93 61.56 105.77 55.61 100.69
  Q 55.54 100.64 55.45 100.62
  Q 55.37 100.60 55.28 100.62
  C 47.71 102.54 39.96 101.14 34.22 95.77
  C 28.47 90.39 26.56 82.76 27.98 75.07
  Q 28.00 74.98 27.97 74.90
  Q 27.95 74.81 27.89 74.75
  C 22.43 69.15 19.77 61.74 21.56 54.08
  C 23.34 46.42 29.00 40.95 36.37 38.33
  Q 36.45 38.30 36.51 38.24
  Q 36.57 38.17 36.59 38.09
  C 38.72 30.56 43.80 24.56 51.33 22.27
  C 58.85 19.99 66.42 22.15 72.37 27.23
  Q 72.44 27.28 72.52 27.30
  Z
  M 49.03 66.71
  Q 48.94 44.15 48.93 43.52
  Q 48.87 40.52 50.34 39.62
  Q 58.42 34.68 66.92 29.97
  A 0.44 0.43 -44.2 0 0 66.94 29.22
  Q 57.97 23.90 49.72 28.30
  C 44.94 30.85 41.15 36.16 41.05 41.28
  Q 40.88 49.55 41.04 62.16
  A 0.28 0.28 0.0 0 0 41.19 62.42
  L 48.86 66.80
  A 0.12 0.11 -74.4 0 0 49.03 66.71
  Z
  M 54.11 52.29
  Q 73.63 41.03 74.17 40.71
  Q 76.74 39.17 78.25 40.00
  Q 86.54 44.56 94.84 49.60
  A 0.44 0.43 16.0 0 0 95.50 49.24
  Q 95.67 38.82 87.77 33.85
  C 83.18 30.97 76.70 30.31 72.21 32.76
  Q 64.95 36.72 54.09 43.11
  A 0.28 0.28 0.0 0 0 53.94 43.36
  L 53.94 52.19
  A 0.12 0.11 -14.1 0 0 54.11 52.29
  Z
  M 58.92 78.26
  Q 39.34 67.11 38.79 66.81
  Q 36.16 65.37 36.12 63.65
  Q 35.86 54.19 36.01 44.49
  A 0.44 0.43 75.7 0 0 35.37 44.10
  Q 26.29 49.22 26.00 58.54
  C 25.84 63.96 28.54 69.88 32.92 72.52
  Q 40.01 76.78 51.01 82.92
  A 0.28 0.28 0.0 0 0 51.30 82.92
  L 58.92 78.46
  A 0.12 0.11 45.5 0 0 58.92 78.26
  Z
  M 69.07 49.63
  Q 88.64 60.85 89.19 61.15
  Q 91.81 62.60 91.86 64.33
  Q 92.09 73.80 91.90 83.52
  A 0.44 0.43 75.8 0 0 92.55 83.90
  Q 101.65 78.81 101.97 69.47
  C 102.15 64.05 99.46 58.11 95.08 55.45
  Q 88.00 51.17 77.00 44.99
  A 0.28 0.28 0.0 0 0 76.71 44.98
  L 69.07 49.43
  A 0.12 0.11 45.7 0 0 69.07 49.63
  Z
  M 58.96 55.16
  Q 54.35 57.80 54.11 58.20
  Q 53.88 58.61 53.85 63.92
  Q 53.83 69.24 54.06 69.64
  Q 54.30 70.05 58.89 72.72
  Q 63.48 75.40 63.95 75.40
  Q 64.41 75.40 69.03 72.76
  Q 73.64 70.13 73.87 69.72
  Q 74.11 69.32 74.13 64.00
  Q 74.15 58.69 73.92 58.28
  Q 73.69 57.88 69.10 55.20
  Q 64.51 52.53 64.04 52.53
  Q 63.57 52.52 58.96 55.16
  Z
  M 79.00 61.11
  Q 79.06 83.74 79.07 84.37
  Q 79.13 87.37 77.65 88.28
  Q 69.54 93.22 61.00 97.93
  A 0.44 0.43 -44.1 0 0 60.99 98.68
  Q 69.98 104.04 78.25 99.64
  C 83.05 97.08 86.86 91.76 86.97 86.63
  Q 87.15 78.33 87.01 65.68
  A 0.28 0.28 0.0 0 0 86.86 65.43
  L 79.17 61.02
  A 0.12 0.11 -74.3 0 0 79.00 61.11
  Z
  M 73.82 75.62
  Q 54.36 86.89 53.82 87.21
  Q 51.26 88.75 49.75 87.92
  Q 41.47 83.38 33.18 78.37
  A 0.44 0.43 15.9 0 0 32.52 78.73
  Q 32.37 89.13 40.26 94.07
  C 44.85 96.94 51.31 97.59 55.79 95.13
  Q 63.03 91.17 73.85 84.78
  A 0.28 0.28 0.0 0 0 74.00 84.53
  L 73.99 75.72
  A 0.12 0.11 -14.2 0 0 73.82 75.62
  Z"
/>
<path fill="#ffffff" d="
  M 49.03 66.71
  A 0.12 0.11 -74.4 0 1 48.86 66.80
  L 41.19 62.42
  A 0.28 0.28 0.0 0 1 41.04 62.16
  Q 40.88 49.55 41.05 41.28
  C 41.15 36.16 44.94 30.85 49.72 28.30
  Q 57.97 23.90 66.94 29.22
  A 0.44 0.43 -44.2 0 1 66.92 29.97
  Q 58.42 34.68 50.34 39.62
  Q 48.87 40.52 48.93 43.52
  Q 48.94 44.15 49.03 66.71
  Z"
/>
<path fill="#ffffff" d="
  M 54.11 52.29
  A 0.12 0.11 -14.1 0 1 53.94 52.19
  L 53.94 43.36
  A 0.28 0.28 0.0 0 1 54.09 43.11
  Q 64.95 36.72 72.21 32.76
  C 76.70 30.31 83.18 30.97 87.77 33.85
  Q 95.67 38.82 95.50 49.24
  A 0.44 0.43 16.0 0 1 94.84 49.60
  Q 86.54 44.56 78.25 40.00
  Q 76.74 39.17 74.17 40.71
  Q 73.63 41.03 54.11 52.29
  Z"
/>
<path fill="#ffffff" d="
  M 58.92 78.26
  A 0.12 0.11 45.5 0 1 58.92 78.46
  L 51.30 82.92
  A 0.28 0.28 0.0 0 1 51.01 82.92
  Q 40.01 76.78 32.92 72.52
  C 28.54 69.88 25.84 63.96 26.00 58.54
  Q 26.29 49.22 35.37 44.10
  A 0.44 0.43 75.7 0 1 36.01 44.49
  Q 35.86 54.19 36.12 63.65
  Q 36.16 65.37 38.79 66.81
  Q 39.34 67.11 58.92 78.26
  Z"
/>
<path fill="#ffffff" d="
  M 69.07 49.63
  A 0.12 0.11 45.7 0 1 69.07 49.43
  L 76.71 44.98
  A 0.28 0.28 0.0 0 1 77.00 44.99
  Q 88.00 51.17 95.08 55.45
  C 99.46 58.11 102.15 64.05 101.97 69.47
  Q 101.65 78.81 92.55 83.90
  A 0.44 0.43 75.8 0 1 91.90 83.52
  Q 92.09 73.80 91.86 64.33
  Q 91.81 62.60 89.19 61.15
  Q 88.64 60.85 69.07 49.63
  Z"
/>
<path fill="#ffffff" d="
  M 69.10 55.20
  Q 73.69 57.88 73.92 58.28
  Q 74.15 58.69 74.13 64.00
  Q 74.11 69.32 73.87 69.72
  Q 73.64 70.13 69.03 72.76
  Q 64.41 75.40 63.95 75.40
  Q 63.48 75.40 58.89 72.72
  Q 54.30 70.05 54.06 69.64
  Q 53.83 69.24 53.85 63.92
  Q 53.88 58.61 54.11 58.20
  Q 54.35 57.80 58.96 55.16
  Q 63.57 52.52 64.04 52.53
  Q 64.51 52.53 69.10 55.20
  Z"
/>
<path fill="#ffffff" d="
  M 79.00 61.11
  A 0.12 0.11 -74.3 0 1 79.17 61.02
  L 86.86 65.43
  A 0.28 0.28 0.0 0 1 87.01 65.68
  Q 87.15 78.33 86.97 86.63
  C 86.86 91.76 83.05 97.08 78.25 99.64
  Q 69.98 104.04 60.99 98.68
  A 0.44 0.43 -44.1 0 1 61.00 97.93
  Q 69.54 93.22 77.65 88.28
  Q 79.13 87.37 79.07 84.37
  Q 79.06 83.74 79.00 61.11
  Z"
/>
<path fill="#ffffff" d="
  M 73.82 75.62
  A 0.12 0.11 -14.2 0 1 73.99 75.72
  L 74.00 84.53
  A 0.28 0.28 0.0 0 1 73.85 84.78
  Q 63.03 91.17 55.79 95.13
  C 51.31 97.59 44.85 96.94 40.26 94.07
  Q 32.37 89.13 32.52 78.73
  A 0.44 0.43 15.9 0 1 33.18 78.37
  Q 41.47 83.38 49.75 87.92
  Q 51.26 88.75 53.82 87.21
  Q 54.36 86.89 73.82 75.62
  Z"
/>
</svg>