<?xml version="1.0" encoding="UTF-8" standalone="no"?>
<!DOCTYPE svg PUBLIC "-//W3C//DTD SVG 1.1//EN" "http://www.w3.org/Graphics/SVG/1.1/DTD/svg11.dtd">
<svg xmlns="http://www.w3.org/2000/svg" version="1.1" viewBox="0.00 0.00 256.00 256.00" width="128" height="128">
<path stroke="#808080" stroke-width="2.00" fill="none" stroke-linecap="butt" vector-effect="non-scaling-stroke" d="
  M 63.13 177.55
  A 0.30 0.30 0.0 0 0 63.39 178.00
  L 192.61 178.00
  A 0.30 0.30 0.0 0 0 192.87 177.55
  L 128.26 61.08
  A 0.30 0.30 0.0 0 0 127.74 61.08
  L 63.13 177.55"
/>
<path fill="#000000" d="
  M 256.00 0.00
  L 256.00 256.00
  L 0.00 256.00
  L 0.00 0.00
  L 256.00 0.00
  Z
  M 63.13 177.55
  A 0.30 0.30 0.0 0 0 63.39 178.00
  L 192.61 178.00
  A 0.30 0.30 0.0 0 0 192.87 177.55
  L 128.26 61.08
  A 0.30 0.30 0.0 0 0 127.74 61.08
  L 63.13 177.55
  Z"
/>
<path fill="#ffffff" d="
  M 63.13 177.55
  L 127.74 61.08
  A 0.30 0.30 0.0 0 1 128.26 61.08
  L 192.87 177.55
  A 0.30 0.30 0.0 0 1 192.61 178.00
  L 63.39 178.00
  A 0.30 0.30 0.0 0 1 63.13 177.55
  Z"
/>
</svg>